<svg width="110" height="82" viewBox="0 0 110 82" fill="none" xmlns="http://www.w3.org/2000/svg">
<path d="M1 38.1673C1 56.5135 10.7311 66.5628 24.8488 73.2637C35.5378 78.3686 46.8635 80.9211 57.8709 81C68.3204 81 78.5304 78.7673 87.7826 74.1413C100.066 67.9995 109 56.3489 109 39.2843C109 21.0184 99.5084 9.45203 80.9238 4.42737C72.3084 2.11436 63.7746 1 55.4789 1C49.416 1 41.7559 1.87624 36.1759 3.2314C13.8415 8.65606 1 18.7923 1 38.1673ZM44.4783 77.8897C46.3926 72.4664 47.5886 68.8771 49.5833 64.0103C51.4977 59.3054 53.1726 55.157 54.7672 51.2493C59.8722 50.6112 64.2589 48.4574 67.1311 45.3457C70.3217 41.8368 72.2361 37.4529 72.3953 33.1426C75.4268 32.6637 78.0582 32.4242 81.6475 32.1861C79.8937 38.0081 78.8569 43.3525 78.8569 47.1812C78.8569 52.8439 81.0094 54.7583 87.2314 54.7583C89.9062 54.7569 92.5754 54.5164 95.2074 54.0399L94.9625 52.3704C92.01 52.9296 89.6114 53.173 87.2248 53.173C82.1197 53.173 80.604 51.6573 80.604 47.1905C80.604 43.2816 81.6408 37.8582 83.4762 32.0349C87.9431 31.7165 91.5324 31.5573 95.2007 31.3179C99.19 31.0784 102.061 30.9166 106.288 30.5995C106.926 33.3112 107.166 36.2623 107.166 39.3739C107.166 55.561 98.711 66.5721 86.7458 72.6349C78.1318 76.9332 68.6455 79.1659 58.909 79.2462C54.062 79.3086 49.2221 78.8538 44.4716 77.8897H44.4783ZM8.89565 58.6673C15.9953 50.1323 21.5793 43.5117 25.8856 38.1673C29.7144 37.5292 33.1445 36.9713 36.4943 36.4924C39.5258 36.0148 42.4769 35.6148 45.7478 35.2161C45.9877 36.3336 46.2268 37.53 46.4649 38.8054C47.1833 42.4749 47.7411 45.9049 48.2201 49.1744C48.699 52.6045 49.1766 55.9543 49.4963 59.5448C49.0174 60.8211 48.4595 62.1762 47.9003 63.5327C45.9873 68.3179 44.6308 72.1466 42.7164 77.491C37.4522 76.374 31.3893 74.3807 25.6462 71.6677C18.7873 68.3179 12.406 63.9314 8.89565 58.6673ZM59.7063 39.0448C62.0194 33.4623 63.614 29.5534 65.4495 24.8471L65.9271 25.0866C69.198 26.6825 70.6334 28.7561 70.6334 32.5848C70.6334 37.0516 68.8796 40.8 65.7679 44.2234C63.2154 47.0153 59.6261 48.8494 55.4789 49.4072C56.9144 45.9049 58.2709 42.4709 59.7063 39.0448ZM27.4013 36.3332C32.8261 29.7126 36.5746 25.6444 42.6361 19.5027C43.8334 25.0866 44.5505 28.835 45.4281 33.4623C42.1585 33.8637 39.2863 34.265 36.4154 34.7386C33.5445 35.2121 30.6722 35.782 27.4013 36.3332ZM82.0395 30.5901C78.0515 30.9099 75.4201 31.148 72.3886 31.548C72.0689 27.8022 70.1558 25.1668 66.3271 23.4117L64.4127 22.5381C62.0997 28.6798 60.7431 32.1901 58.1104 38.3318C55.6381 44.1538 53.4053 50.2166 50.7726 56.6767C50.5331 53.8847 50.2936 51.4125 49.895 48.7838C49.4963 45.7515 48.938 42.3219 48.2201 38.495C46.8635 30.9968 45.9873 26.7695 43.9926 17.3583H42.3177C35.1391 24.8498 31.0709 29.1627 25.1686 36.4215C20.8609 41.7645 14.9585 48.7049 7.85886 57.1569C4.98796 52.7717 2.83411 46.0641 2.83411 38.1673C2.83411 19.8224 15.2756 10.2507 36.7338 4.90629C42.1585 3.55113 49.5766 2.67355 55.4789 2.67355C63.2956 2.67355 71.7505 3.86952 80.3619 6.10359C94.4007 9.77176 102.936 17.5094 105.807 28.9955C101.66 29.3139 98.3886 29.5534 95.1191 29.7126C91.6087 29.952 87.7799 30.1915 83.9512 30.4309C84.909 27.3206 85.8656 24.2892 87.1418 21.0184L85.5472 20.4605C84.2736 23.8103 83.0776 27.2404 82.0395 30.5901Z" fill="#262626" stroke="#262626" stroke-width="0.509337"/>
</svg>
